<svg width="32" height="32" viewBox="0 0 32 32" fill="none" xmlns="http://www.w3.org/2000/svg">
<path d="M31.0625 5.75H5.625V2.9375C5.625 2.41968 5.20532 2 4.6875 2H0.9375C0.419678 2 0 2.41968 0 2.9375C0 3.45532 0.419678 3.875 0.9375 3.875H3.75V9.5H0.9375C0.419678 9.5 0 9.91968 0 10.4375V21.6875C0 22.2053 0.419678 22.625 0.9375 22.625H3.75V29.1875C3.75 29.7053 4.16968 30.125 4.6875 30.125C5.20532 30.125 5.625 29.7053 5.625 29.1875V26.375H7.5625V27.3125C7.5625 27.8303 7.98218 28.25 8.5 28.25C9.01782 28.25 9.4375 27.8303 9.4375 27.3125V26.375H11.3125V27.3125C11.3125 27.8303 11.7322 28.25 12.25 28.25C12.7678 28.25 13.1875 27.8303 13.1875 27.3125V26.375H15.0625V27.3125C15.0625 27.8303 15.4822 28.25 16 28.25C16.5178 28.25 16.9375 27.8303 16.9375 27.3125V26.375H18.8125V27.3125C18.8125 27.8303 19.2322 28.25 19.75 28.25C20.2678 28.25 20.6875 27.8303 20.6875 27.3125V26.375H31.0625C31.5803 26.375 32 25.9553 32 25.4375V6.6875C32 6.16968 31.5803 5.75 31.0625 5.75ZM3.75 20.75H1.875V18.875H3.75V20.75ZM3.75 17H1.875V15.125H3.75V17ZM3.75 13.25H1.875V11.375H3.75V13.25ZM30.125 24.5H5.625V7.625H30.125V24.5Z" fill="#2B398F"/>
<path d="M31.0625 5.75H5.625V2.9375C5.625 2.41968 5.20532 2 4.6875 2H0.9375C0.419678 2 0 2.41968 0 2.9375C0 3.45532 0.419678 3.875 0.9375 3.875H3.75V9.5H0.9375C0.419678 9.5 0 9.91968 0 10.4375V21.6875C0 22.2053 0.419678 22.625 0.9375 22.625H3.75V29.1875C3.75 29.7053 4.16968 30.125 4.6875 30.125C5.20532 30.125 5.625 29.7053 5.625 29.1875V26.375H7.5625V27.3125C7.5625 27.8303 7.98218 28.25 8.5 28.25C9.01782 28.25 9.4375 27.8303 9.4375 27.3125V26.375H11.3125V27.3125C11.3125 27.8303 11.7322 28.25 12.25 28.25C12.7678 28.25 13.1875 27.8303 13.1875 27.3125V26.375H15.0625V27.3125C15.0625 27.8303 15.4822 28.25 16 28.25C16.5178 28.25 16.9375 27.8303 16.9375 27.3125V26.375H18.8125V27.3125C18.8125 27.8303 19.2322 28.25 19.75 28.25C20.2678 28.25 20.6875 27.8303 20.6875 27.3125V26.375H31.0625C31.5803 26.375 32 25.9553 32 25.4375V6.6875C32 6.16968 31.5803 5.75 31.0625 5.75ZM3.75 20.75H1.875V18.875H3.75V20.75ZM3.75 17H1.875V15.125H3.75V17ZM3.75 13.25H1.875V11.375H3.75V13.25ZM30.125 24.5H5.625V7.625H30.125V24.5Z" fill="#3749BB"/>
<path d="M21.625 22.625C25.2778 22.625 28.2498 19.6814 28.25 16.063C28.25 16.0632 28.25 16.0627 28.25 16.063C28.2498 12.4448 25.2781 9.50024 21.6255 9.5C21.6257 9.5 21.6252 9.5 21.6255 9.5C18.0095 9.50024 15.0625 12.4436 15.0625 16.0625C15.0625 19.679 18.0061 22.625 21.625 22.625ZM18.0247 19.0603C17.6936 18.6636 17.4275 18.2114 17.2412 17.7202C17.4485 17.7568 17.6602 17.7766 17.875 17.7766C18.343 17.7766 18.7974 17.687 19.2188 17.5171C19.2549 17.5769 19.2939 17.6345 19.3345 17.6914C19.2129 18.3691 18.6919 18.9097 18.0247 19.0603ZM23.281 20.4556C23.3188 20.2454 23.3391 20.0305 23.3391 19.8125C23.3391 19.3445 23.2495 18.8901 23.0796 18.4688C23.1392 18.4326 23.197 18.3936 23.2539 18.3533C23.9409 18.4763 24.4875 19.0098 24.6292 19.6904C24.2288 20.0139 23.7742 20.2739 23.281 20.4556ZM26.3545 16.4905C26.3037 17.0398 26.1567 17.562 25.9299 18.0405C25.5439 17.4675 24.9976 17.0115 24.3552 16.7373C24.3718 16.6692 24.3862 16.6001 24.3979 16.5303C24.9761 16.1309 25.7622 16.1177 26.3545 16.4905ZM25.2656 13.0559C25.605 13.4556 25.8779 13.9116 26.0684 14.4075C25.8525 14.3689 25.6313 14.3484 25.4062 14.3484C24.9258 14.3484 24.4614 14.4387 24.033 14.6106C23.9961 14.55 23.9568 14.4912 23.9158 14.4336C24.0396 13.7424 24.5789 13.1934 25.2656 13.0559ZM22.0525 11.395C22.5864 11.4421 23.095 11.5771 23.564 11.7849C23.0093 12.1692 22.5674 12.7048 22.2996 13.3323C22.2312 13.3154 22.1621 13.3013 22.0918 13.2896C21.6992 12.7239 21.686 11.9729 22.0525 11.395ZM20.6875 16.0623C20.6875 15.5454 21.1082 15.125 21.625 15.125C22.1418 15.125 22.5625 15.5454 22.5625 16.0623C22.5625 16.5791 22.1421 17 21.6252 17C21.6255 17 21.625 17 21.6252 17C21.1084 17 20.6877 16.5791 20.6875 16.0623C20.6875 16.062 20.6875 16.0625 20.6875 16.0623ZM20.9502 18.7927C21.0186 18.8096 21.0879 18.8237 21.158 18.8354C21.5508 19.4009 21.564 20.1516 21.1978 20.7297C20.6667 20.6814 20.1614 20.5439 19.696 20.333C20.2458 19.9492 20.6841 19.4163 20.9502 18.7927ZM19.9673 11.6787C19.9307 11.886 19.9109 12.0977 19.9109 12.3125C19.9109 12.7805 20.0005 13.2349 20.1704 13.6562C20.1108 13.6924 20.053 13.7314 19.9961 13.7717C19.3184 13.6504 18.7778 13.1294 18.6272 12.4622C19.0239 12.1313 19.4761 11.865 19.9673 11.6787ZM17.3545 14.1335C17.7383 14.6833 18.2712 15.1216 18.8948 15.3877C18.8779 15.4561 18.8638 15.5254 18.8521 15.5955C18.2866 15.9883 17.5359 16.0015 16.9578 15.6353C17.0061 15.1042 17.1436 14.5989 17.3545 14.1335Z" fill="#2B398F"/>
<path d="M21.625 22.625C25.2778 22.625 28.2498 19.6814 28.25 16.063C28.25 16.0632 28.25 16.0627 28.25 16.063C28.2498 12.4448 25.2781 9.50024 21.6255 9.5C21.6257 9.5 21.6252 9.5 21.6255 9.5C18.0095 9.50024 15.0625 12.4436 15.0625 16.0625C15.0625 19.679 18.0061 22.625 21.625 22.625ZM18.0247 19.0603C17.6936 18.6636 17.4275 18.2114 17.2412 17.7202C17.4485 17.7568 17.6602 17.7766 17.875 17.7766C18.343 17.7766 18.7974 17.687 19.2188 17.5171C19.2549 17.5769 19.2939 17.6345 19.3345 17.6914C19.2129 18.3691 18.6919 18.9097 18.0247 19.0603ZM23.281 20.4556C23.3188 20.2454 23.3391 20.0305 23.3391 19.8125C23.3391 19.3445 23.2495 18.8901 23.0796 18.4688C23.1392 18.4326 23.197 18.3936 23.2539 18.3533C23.9409 18.4763 24.4875 19.0098 24.6292 19.6904C24.2288 20.0139 23.7742 20.2739 23.281 20.4556ZM26.3545 16.4905C26.3037 17.0398 26.1567 17.562 25.9299 18.0405C25.5439 17.4675 24.9976 17.0115 24.3552 16.7373C24.3718 16.6692 24.3862 16.6001 24.3979 16.5303C24.9761 16.1309 25.7622 16.1177 26.3545 16.4905ZM25.2656 13.0559C25.605 13.4556 25.8779 13.9116 26.0684 14.4075C25.8525 14.3689 25.6313 14.3484 25.4062 14.3484C24.9258 14.3484 24.4614 14.4387 24.033 14.6106C23.9961 14.55 23.9568 14.4912 23.9158 14.4336C24.0396 13.7424 24.5789 13.1934 25.2656 13.0559ZM22.0525 11.395C22.5864 11.4421 23.095 11.5771 23.564 11.7849C23.0093 12.1692 22.5674 12.7048 22.2996 13.3323C22.2312 13.3154 22.1621 13.3013 22.0918 13.2896C21.6992 12.7239 21.686 11.9729 22.0525 11.395ZM20.6875 16.0623C20.6875 15.5454 21.1082 15.125 21.625 15.125C22.1418 15.125 22.5625 15.5454 22.5625 16.0623C22.5625 16.5791 22.1421 17 21.6252 17C21.6255 17 21.625 17 21.6252 17C21.1084 17 20.6877 16.5791 20.6875 16.0623C20.6875 16.062 20.6875 16.0625 20.6875 16.0623ZM20.9502 18.7927C21.0186 18.8096 21.0879 18.8237 21.158 18.8354C21.5508 19.4009 21.564 20.1516 21.1978 20.7297C20.6667 20.6814 20.1614 20.5439 19.696 20.333C20.2458 19.9492 20.6841 19.4163 20.9502 18.7927ZM19.9673 11.6787C19.9307 11.886 19.9109 12.0977 19.9109 12.3125C19.9109 12.7805 20.0005 13.2349 20.1704 13.6562C20.1108 13.6924 20.053 13.7314 19.9961 13.7717C19.3184 13.6504 18.7778 13.1294 18.6272 12.4622C19.0239 12.1313 19.4761 11.865 19.9673 11.6787ZM17.3545 14.1335C17.7383 14.6833 18.2712 15.1216 18.8948 15.3877C18.8779 15.4561 18.8638 15.5254 18.8521 15.5955C18.2866 15.9883 17.5359 16.0015 16.9578 15.6353C17.0061 15.1042 17.1436 14.5989 17.3545 14.1335Z" fill="#3749BB"/>
<path d="M8.5 15.125H12.25C12.7678 15.125 13.1875 14.7053 13.1875 14.1875C13.1875 13.6697 12.7678 13.25 12.25 13.25H8.5C7.98218 13.25 7.5625 13.6697 7.5625 14.1875C7.5625 14.7053 7.98218 15.125 8.5 15.125Z" fill="#2B398F"/>
<path d="M8.5 15.125H12.25C12.7678 15.125 13.1875 14.7053 13.1875 14.1875C13.1875 13.6697 12.7678 13.25 12.25 13.25H8.5C7.98218 13.25 7.5625 13.6697 7.5625 14.1875C7.5625 14.7053 7.98218 15.125 8.5 15.125Z" fill="#3749BB"/>
<path d="M8.5 18.875H12.25C12.7678 18.875 13.1875 18.4553 13.1875 17.9375C13.1875 17.4197 12.7678 17 12.25 17H8.5C7.98218 17 7.5625 17.4197 7.5625 17.9375C7.5625 18.4553 7.98218 18.875 8.5 18.875Z" fill="#2B398F"/>
<path d="M8.5 18.875H12.25C12.7678 18.875 13.1875 18.4553 13.1875 17.9375C13.1875 17.4197 12.7678 17 12.25 17H8.5C7.98218 17 7.5625 17.4197 7.5625 17.9375C7.5625 18.4553 7.98218 18.875 8.5 18.875Z" fill="#3749BB"/>
<path d="M8.5 22.625H12.25C12.7678 22.625 13.1875 22.2053 13.1875 21.6875C13.1875 21.1697 12.7678 20.75 12.25 20.75H8.5C7.98218 20.75 7.5625 21.1697 7.5625 21.6875C7.5625 22.2053 7.98218 22.625 8.5 22.625Z" fill="#2B398F"/>
<path d="M8.5 22.625H12.25C12.7678 22.625 13.1875 22.2053 13.1875 21.6875C13.1875 21.1697 12.7678 20.75 12.25 20.75H8.5C7.98218 20.75 7.5625 21.1697 7.5625 21.6875C7.5625 22.2053 7.98218 22.625 8.5 22.625Z" fill="#3749BB"/>
<path d="M9.4375 10.4375C9.4375 10.9553 9.01782 11.375 8.5 11.375C7.98218 11.375 7.5625 10.9553 7.5625 10.4375C7.5625 9.91968 7.98218 9.5 8.5 9.5C9.01782 9.5 9.4375 9.91968 9.4375 10.4375Z" fill="#2B398F"/>
<path d="M9.4375 10.4375C9.4375 10.9553 9.01782 11.375 8.5 11.375C7.98218 11.375 7.5625 10.9553 7.5625 10.4375C7.5625 9.91968 7.98218 9.5 8.5 9.5C9.01782 9.5 9.4375 9.91968 9.4375 10.4375Z" fill="#3749BB"/>
<path d="M13.1875 10.4375C13.1875 10.9553 12.7678 11.375 12.25 11.375C11.7322 11.375 11.3125 10.9553 11.3125 10.4375C11.3125 9.91968 11.7322 9.5 12.25 9.5C12.7678 9.5 13.1875 9.91968 13.1875 10.4375Z" fill="#2B398F"/>
<path d="M13.1875 10.4375C13.1875 10.9553 12.7678 11.375 12.25 11.375C11.7322 11.375 11.3125 10.9553 11.3125 10.4375C11.3125 9.91968 11.7322 9.5 12.25 9.5C12.7678 9.5 13.1875 9.91968 13.1875 10.4375Z" fill="#3749BB"/>
</svg>
